<svg width="40" height="40" viewBox="0 0 40 40" fill="none" xmlns="http://www.w3.org/2000/svg">
<path d="M1.24997 12.5H38.7499C39.44 12.5 39.9999 11.94 39.9999 11.25C39.9999 10.56 39.4398 10.0001 38.7499 10.0001H1.24997C0.55994 10.0001 0 10.5601 0 11.25C0 11.94 0.560044 12.5 1.24997 12.5Z" fill="#F1F1F1"/>
<path d="M38.7499 18.7501H1.24997C0.55994 18.7501 0 19.3101 0 20C0 20.6899 0.560044 21.25 1.24997 21.25H38.7499C39.44 21.25 39.9999 20.6899 39.9999 20C39.9999 19.3101 39.44 18.7501 38.7499 18.7501Z" fill="#F1F1F1"/>
<path d="M38.7499 27.5H13.75C13.0599 27.5 12.5 28.06 12.5 28.75C12.5 29.44 13.06 29.9999 13.75 29.9999H38.7499C39.44 29.9999 39.9999 29.4399 39.9999 28.75C40 28.0599 39.44 27.5 38.7499 27.5Z" fill="#F1F1F1"/>
</svg>
