<svg width="40" height="40" viewBox="0 0 40 40" fill="none" xmlns="http://www.w3.org/2000/svg">
<path d="M6.11614 7.93576L32.6326 34.4522C33.1205 34.9402 33.9125 34.9401 34.4003 34.4522C34.8883 33.9643 34.8882 33.1724 34.4003 32.6845L7.88386 6.16804C7.39594 5.68012 6.60399 5.68019 6.11614 6.16804C5.62829 6.65589 5.62829 7.44791 6.11614 7.93576Z" fill="#F1F1F1"/>
<path d="M32.4003 5.88384L5.88386 32.4003C5.39594 32.8882 5.39601 33.6802 5.88386 34.168C6.3717 34.6559 7.16372 34.6559 7.65157 34.168L34.168 7.65155C34.656 7.16363 34.6559 6.37169 34.1681 5.88384C33.6802 5.39599 32.8883 5.39592 32.4003 5.88384Z" fill="#F1F1F1"/>
</svg>
