<svg width="327" height="44" viewBox="0 0 327 44" fill="none" xmlns="http://www.w3.org/2000/svg">
<path d="M8.26172 0C7.98828 1.41927 7.85156 4.27083 7.85156 8.55469V9.96094L7.89062 28.6523C7.89062 29.7201 7.96875 30.3841 8.125 30.6445C8.3724 31.0352 8.80859 31.2305 9.43359 31.2305C10.306 31.2305 11.0677 31.1589 11.7188 31.0156L11.4062 33.3008H0.0976562L0.429688 31.2305C1.78385 31.2305 2.64974 31.0807 3.02734 30.7812C3.41797 30.4818 3.66536 30.1758 3.76953 29.8633C3.88672 29.5378 3.94531 29.1406 3.94531 28.6719V6.64062C3.94531 5.53385 3.8737 4.84375 3.73047 4.57031C3.60026 4.29688 3.47656 4.09505 3.35938 3.96484C3.25521 3.82161 3.08594 3.71094 2.85156 3.63281C2.63021 3.54167 2.36979 3.48307 2.07031 3.45703C1.65365 3.40495 0.963542 3.37891 0 3.37891L0.234375 1.15234L8.26172 0Z" fill="white"/>
<path d="M25.5078 30.2539C28.0859 30.0846 30.3581 29.4661 32.3242 28.3984L33.1836 30.0391C31.2174 31.6667 28.9779 32.7799 26.4648 33.3789C25.7096 33.5482 25.0195 33.6328 24.3945 33.6328C19.4857 33.6328 16.3932 31.4648 15.1172 27.1289C14.7005 25.7357 14.4922 24.1146 14.4922 22.2656C14.4922 20.4036 14.7917 18.6914 15.3906 17.1289C16.0026 15.5664 16.8034 14.2383 17.793 13.1445C18.7956 12.0378 19.9414 11.1849 21.2305 10.5859C22.5195 9.98698 23.8542 9.6875 25.2344 9.6875C30.7682 9.6875 33.5352 12.8516 33.5352 19.1797V19.375C33.5352 21.0286 33.3398 21.8555 32.9492 21.8555H18.5742C18.5742 24.5768 19.1732 26.6471 20.3711 28.0664C21.582 29.4857 23.2943 30.2148 25.5078 30.2539ZM29.082 19.3555C29.0951 19.082 29.1016 18.8737 29.1016 18.7305V18.0859C29.1016 15.026 28.2552 13.1445 26.5625 12.4414C25.9505 12.181 25.293 12.0508 24.5898 12.0508C23.8997 12.0508 23.3138 12.1549 22.832 12.3633C22.3503 12.5716 21.8945 12.8581 21.4648 13.2227C21.0482 13.5872 20.6641 14.0169 20.3125 14.5117C19.9609 14.9935 19.6549 15.5273 19.3945 16.1133C18.8477 17.3242 18.5742 18.5612 18.5742 19.8242L29.082 19.3555Z" fill="white"/>
<path d="M44.8438 25.7617C44.0234 26.4128 43.6133 26.9727 43.6133 27.4414C43.6133 27.8971 43.6979 28.2422 43.8672 28.4766C44.0495 28.6979 44.3229 28.8802 44.6875 29.0234C45.1562 29.2057 46.3151 29.401 48.1641 29.6094L50.0391 29.8438C52.6432 30.1693 54.5052 30.6836 55.625 31.3867C57.0443 32.2852 57.7539 33.6133 57.7539 35.3711C57.7539 37.7669 56.7969 39.7135 54.8828 41.2109C52.9818 42.6823 50.4948 43.418 47.4219 43.418C42.8255 43.418 39.8047 42.3633 38.3594 40.2539C37.9036 39.5768 37.6758 38.8672 37.6758 38.125C37.6758 37.3828 37.7799 36.7188 37.9883 36.1328C38.2096 35.5599 38.5156 35.026 38.9062 34.5312C39.7266 33.5026 40.8073 32.7148 42.1484 32.168C40.612 31.4779 39.8438 30.5729 39.8438 29.4531C39.8438 28.2943 40.4232 27.1289 41.582 25.957C41.8945 25.6315 42.2005 25.3776 42.5 25.1953C40.1042 24.3099 38.6458 22.6237 38.125 20.1367C37.9688 19.4336 37.8906 18.6458 37.8906 17.7734C37.8906 16.901 38.1445 15.9635 38.6523 14.9609C39.1732 13.9453 39.8958 13.0469 40.8203 12.2656C42.8776 10.5469 45.4492 9.6875 48.5352 9.6875C49.9674 9.6875 51.2956 9.97396 52.5195 10.5469L58.6523 9.66797V12.9883L55.4492 13.0469C56.2435 14.2188 56.6406 15.5599 56.6406 17.0703C56.6406 18.5807 56.3411 19.8568 55.7422 20.8984C55.1562 21.9401 54.388 22.819 53.4375 23.5352C51.4844 25.0456 49.2578 25.8008 46.7578 25.8008C46.3151 25.8008 45.931 25.8008 45.6055 25.8008C45.293 25.8008 45.0391 25.7878 44.8438 25.7617ZM47.5781 23.457C48.3724 23.457 49.0755 23.3464 49.6875 23.125C50.3125 22.8906 50.8529 22.5456 51.3086 22.0898C52.2721 21.1523 52.7539 19.8438 52.7539 18.1641C52.7539 16.4062 52.2786 14.9935 51.3281 13.9258C50.3255 12.793 48.9583 12.2266 47.2266 12.2266C45.651 12.2266 44.4401 12.5521 43.5938 13.2031C42.4349 14.0755 41.8555 15.5859 41.8555 17.7344C41.8555 19.2578 42.4023 20.5794 43.4961 21.6992C44.6419 22.8711 46.0026 23.457 47.5781 23.457ZM44.2773 32.7734C42.6237 33.737 41.7969 35.1562 41.7969 37.0312C41.7969 38.2422 42.3828 39.1992 43.5547 39.9023C44.6745 40.5664 45.9766 40.8984 47.4609 40.8984C48.9583 40.8984 50.1237 40.8008 50.957 40.6055C51.7904 40.4102 52.474 40.1367 53.0078 39.7852C54.0365 39.1211 54.5508 38.1836 54.5508 36.9727C54.5508 35.6966 53.8802 34.7982 52.5391 34.2773C51.6016 33.8997 49.5117 33.4896 46.2695 33.0469L44.2773 32.7734Z" fill="white"/>
<path d="M79.0039 16.2891L78.6914 26.6602C78.6914 28.0534 79.1146 29.056 79.9609 29.668C80.5469 30.0977 81.2956 30.3125 82.207 30.3125C82.1549 30.9766 81.888 31.5755 81.4062 32.1094C80.5599 33.0469 79.8698 33.5872 79.3359 33.7305C78.5286 33.7305 77.7669 33.457 77.0508 32.9102C76.3477 32.3633 75.8008 31.5625 75.4102 30.5078C73.9258 31.9141 72.1094 32.9102 69.9609 33.4961C69.362 33.6654 68.6589 33.75 67.8516 33.75C67.0573 33.75 66.2044 33.6003 65.293 33.3008C64.3945 32.9883 63.6393 32.5521 63.0273 31.9922C61.7904 30.8594 61.1719 29.3164 61.1719 27.3633C61.1719 24.9935 62.5 23.151 65.1562 21.8359C67.6302 20.612 70.8854 20 74.9219 20H75.1367C75.1367 19.1797 75.1237 18.3789 75.0977 17.5977L75.0781 16.8164C75.013 15.2409 74.4466 14.043 73.3789 13.2227C72.5326 12.5716 71.4909 12.2461 70.2539 12.2461C69.0169 12.2461 68.0208 12.5781 67.2656 13.2422C66.5104 13.8932 66.1328 14.8372 66.1328 16.0742C66.1328 16.5299 66.1849 17.0182 66.2891 17.5391H62.793L62.6562 17.5C62.6172 17.2917 62.5781 17.0703 62.5391 16.8359C62.4219 16.276 62.3242 15.6966 62.2461 15.0977C62.181 14.4857 62.1484 14.082 62.1484 13.8867C62.1484 13.6003 62.2005 13.3919 62.3047 13.2617C65.6771 10.8789 68.9779 9.6875 72.207 9.6875C75.3581 9.6875 77.4349 10.8333 78.4375 13.125C78.8151 13.9714 79.0039 15.026 79.0039 16.2891ZM74.9219 27.4219C75.013 25.7812 75.0781 24.0234 75.1172 22.1484C74.974 22.0964 74.5378 22.0703 73.8086 22.0703C73.0924 22.0703 72.181 22.1875 71.0742 22.4219C69.9805 22.6432 69.0234 22.9688 68.2031 23.3984C66.4583 24.3229 65.5859 25.5599 65.5859 27.1094C65.5859 28.1901 65.9375 29.0951 66.6406 29.8242C67.3568 30.5534 68.2812 30.918 69.4141 30.918C70.8203 30.918 72.2656 30.2865 73.75 29.0234C74.1927 28.6458 74.5833 28.2487 74.9219 27.832V27.4219Z" fill="white"/>
<path d="M91.6992 0C91.4258 1.41927 91.2891 4.27083 91.2891 8.55469V9.96094L91.3281 28.6523C91.3281 29.7201 91.4062 30.3841 91.5625 30.6445C91.8099 31.0352 92.2461 31.2305 92.8711 31.2305C93.7435 31.2305 94.5052 31.1589 95.1562 31.0156L94.8438 33.3008H83.5352L83.8672 31.2305C85.2214 31.2305 86.0872 31.0807 86.4648 30.7812C86.8555 30.4818 87.1029 30.1758 87.207 29.8633C87.3242 29.5378 87.3828 29.1406 87.3828 28.6719V6.64062C87.3828 5.53385 87.3112 4.84375 87.168 4.57031C87.0378 4.29688 86.9141 4.09505 86.7969 3.96484C86.6927 3.82161 86.5234 3.71094 86.2891 3.63281C86.0677 3.54167 85.8073 3.48307 85.5078 3.45703C85.0911 3.40495 84.401 3.37891 83.4375 3.37891L83.6719 1.15234L91.6992 0Z" fill="white"/>
<path d="M145.84 21.0156C145.905 21.4974 145.938 21.8945 145.938 22.207C145.938 22.7799 145.762 23.2292 145.41 23.5547C144.629 23.6719 143.307 23.7435 141.445 23.7695C140.768 26.556 139.219 28.8672 136.797 30.7031C134.219 32.6432 131.165 33.6133 127.637 33.6133C123.809 33.6133 120.833 32.806 118.711 31.1914C116.667 29.6289 115.645 27.513 115.645 24.8438C115.645 22.1745 117.513 19.2513 121.25 16.0742C119.779 14.6029 119.043 12.9753 119.043 11.1914C119.043 9.06901 119.987 7.20703 121.875 5.60547C123.802 3.96484 126.081 3.14453 128.711 3.14453C131.68 3.14453 133.691 3.83464 134.746 5.21484C135.111 5.68359 135.293 6.15234 135.293 6.62109C135.293 7.08984 135.26 7.48698 135.195 7.8125C135.143 8.13802 135.072 8.45703 134.98 8.76953C134.772 9.45964 134.59 9.89583 134.434 10.0781C134.225 10.3255 133.75 10.4492 133.008 10.4492C132.266 10.4492 131.895 10.3451 131.895 10.1367C131.895 8.71745 131.471 7.57812 130.625 6.71875C129.818 5.88542 128.763 5.46875 127.461 5.46875C126.432 5.46875 125.41 5.85286 124.395 6.62109C123.262 7.48047 122.695 8.47005 122.695 9.58984C122.695 10.8138 123.184 12.0247 124.16 13.2227C124.421 13.5352 124.655 13.776 124.863 13.9453C125.085 14.1016 125.241 14.2578 125.332 14.4141C125.436 14.5573 125.508 14.694 125.547 14.8242C125.612 15.1107 125.579 15.2995 125.449 15.3906C123.262 16.9141 121.712 18.6784 120.801 20.6836C120.436 21.4779 120.254 22.4154 120.254 23.4961C120.254 24.5768 120.462 25.599 120.879 26.5625C121.296 27.526 121.875 28.3268 122.617 28.9648C124.062 30.2279 126.042 30.8594 128.555 30.8594C131.315 30.8594 133.581 30.1823 135.352 28.8281C137.109 27.5 138.079 25.8203 138.262 23.7891C137.311 23.7891 136.341 23.7826 135.352 23.7695L132.539 23.7305C131.628 23.7174 130.781 23.7044 130 23.6914L128.027 23.6328C127.702 23.6198 127.396 23.6133 127.109 23.6133H126.562C126.146 23.6133 125.938 23.3789 125.938 22.9102C125.938 22.4414 126.042 21.9401 126.25 21.4062C126.458 20.8594 126.751 20.293 127.129 19.707C127.52 19.1081 127.995 18.5091 128.555 17.9102C129.128 17.3112 129.772 16.7773 130.488 16.3086C132.09 15.2409 133.802 14.707 135.625 14.707C138.346 14.707 140.208 15.8333 141.211 18.0859C141.589 18.9323 141.777 20 141.777 21.2891C143.796 21.224 145.15 21.1328 145.84 21.0156ZM129.844 21.3867C130.195 21.3477 131.276 21.3281 133.086 21.3281H138.281C137.891 19.7786 137.018 18.6393 135.664 17.9102C135.13 17.6237 134.583 17.4805 134.023 17.4805C133.464 17.4805 133.021 17.5391 132.695 17.6562C132.383 17.7604 132.096 17.9036 131.836 18.0859C130.898 18.75 130.234 19.8503 129.844 21.3867Z" fill="white"/>
<path d="M176.172 30.1367C178.281 30.1367 180.423 29.5443 182.598 28.3594L183.34 29.9414C182.715 30.6445 181.875 31.2826 180.82 31.8555C178.62 33.0404 176.706 33.6328 175.078 33.6328C173.464 33.6328 172.005 33.3854 170.703 32.8906C169.414 32.3828 168.294 31.6602 167.344 30.7227C165.352 28.7435 164.355 26.0938 164.355 22.7734C164.355 18.737 165.56 15.5013 167.969 13.0664C170.195 10.8138 172.988 9.6875 176.348 9.6875C178.184 9.6875 180.02 9.96745 181.855 10.5273L182.383 10.6836C182.552 10.7357 182.702 10.7747 182.832 10.8008C182.936 11.0091 182.988 11.4779 182.988 12.207C182.988 12.9362 182.969 13.5091 182.93 13.9258C182.904 14.3294 182.865 14.7201 182.812 15.0977C182.773 15.4753 182.728 15.8138 182.676 16.1133L182.559 16.8164C182.48 16.9466 182.077 17.0117 181.348 17.0117C180.462 17.0117 179.883 16.9531 179.609 16.8359C179.609 15.2865 179.414 14.2318 179.023 13.6719C178.646 13.099 178.164 12.6823 177.578 12.4219C177.005 12.1615 176.243 12.0312 175.293 12.0312C174.355 12.0312 173.483 12.2331 172.676 12.6367C171.868 13.0273 171.159 13.6133 170.547 14.3945C169.219 16.1133 168.555 18.444 168.555 21.3867C168.555 25.5924 169.974 28.3008 172.812 29.5117C173.763 29.9284 174.883 30.1367 176.172 30.1367Z" fill="white"/>
<path d="M194.453 30.7031C194.648 30.9375 194.902 31.0872 195.215 31.1523C195.54 31.2044 196.211 31.2305 197.227 31.2305C198.242 31.2305 199.036 31.1523 199.609 30.9961L199.473 33.3008H186.895L187.168 31.2305C188.314 31.2305 189.049 31.0286 189.375 30.625C189.961 29.8958 190.254 28.6068 190.254 26.7578V17.3438C190.254 15.5859 190.072 14.4987 189.707 14.082C189.303 13.6133 188.418 13.3398 187.051 13.2617L187.324 10.7617L194.336 9.70703C194.206 10.6576 194.141 11.7448 194.141 12.9688C195.508 11.6667 197.109 10.6836 198.945 10.0195C199.596 9.79818 200.215 9.6875 200.801 9.6875C203.301 9.6875 204.551 10.8008 204.551 13.0273C204.551 14.3424 204.362 15.7552 203.984 17.2656C203.958 17.3698 203.939 17.4414 203.926 17.4805C203.913 17.5065 203.906 17.526 203.906 17.5391H200.645L200.762 16.6211L200.84 15.8398C200.866 15.5924 200.879 15.332 200.879 15.0586C200.879 14.7852 200.853 14.5117 200.801 14.2383C200.762 13.9648 200.677 13.737 200.547 13.5547C200.312 13.2031 199.915 13.0273 199.355 13.0273C198.796 13.0273 198.262 13.112 197.754 13.2812C197.259 13.4505 196.777 13.6523 196.309 13.8867C195.358 14.3815 194.622 14.8893 194.102 15.4102L194.141 15.3906L194.16 28.4961C194.16 29.7331 194.258 30.4688 194.453 30.7031Z" fill="white"/>
<path d="M218.594 30.2539C221.172 30.0846 223.444 29.4661 225.41 28.3984L226.27 30.0391C224.303 31.6667 222.064 32.7799 219.551 33.3789C218.796 33.5482 218.105 33.6328 217.48 33.6328C212.572 33.6328 209.479 31.4648 208.203 27.1289C207.786 25.7357 207.578 24.1146 207.578 22.2656C207.578 20.4036 207.878 18.6914 208.477 17.1289C209.089 15.5664 209.889 14.2383 210.879 13.1445C211.882 12.0378 213.027 11.1849 214.316 10.5859C215.605 9.98698 216.94 9.6875 218.32 9.6875C223.854 9.6875 226.621 12.8516 226.621 19.1797V19.375C226.621 21.0286 226.426 21.8555 226.035 21.8555H211.66C211.66 24.5768 212.259 26.6471 213.457 28.0664C214.668 29.4857 216.38 30.2148 218.594 30.2539ZM222.168 19.3555C222.181 19.082 222.188 18.8737 222.188 18.7305V18.0859C222.188 15.026 221.341 13.1445 219.648 12.4414C219.036 12.181 218.379 12.0508 217.676 12.0508C216.986 12.0508 216.4 12.1549 215.918 12.3633C215.436 12.5716 214.98 12.8581 214.551 13.2227C214.134 13.5872 213.75 14.0169 213.398 14.5117C213.047 14.9935 212.741 15.5273 212.48 16.1133C211.934 17.3242 211.66 18.5612 211.66 19.8242L222.168 19.3555Z" fill="white"/>
<path d="M248.73 16.2891L248.418 26.6602C248.418 28.0534 248.841 29.056 249.688 29.668C250.273 30.0977 251.022 30.3125 251.934 30.3125C251.882 30.9766 251.615 31.5755 251.133 32.1094C250.286 33.0469 249.596 33.5872 249.062 33.7305C248.255 33.7305 247.493 33.457 246.777 32.9102C246.074 32.3633 245.527 31.5625 245.137 30.5078C243.652 31.9141 241.836 32.9102 239.688 33.4961C239.089 33.6654 238.385 33.75 237.578 33.75C236.784 33.75 235.931 33.6003 235.02 33.3008C234.121 32.9883 233.366 32.5521 232.754 31.9922C231.517 30.8594 230.898 29.3164 230.898 27.3633C230.898 24.9935 232.227 23.151 234.883 21.8359C237.357 20.612 240.612 20 244.648 20H244.863C244.863 19.1797 244.85 18.3789 244.824 17.5977L244.805 16.8164C244.74 15.2409 244.173 14.043 243.105 13.2227C242.259 12.5716 241.217 12.2461 239.98 12.2461C238.743 12.2461 237.747 12.5781 236.992 13.2422C236.237 13.8932 235.859 14.8372 235.859 16.0742C235.859 16.5299 235.911 17.0182 236.016 17.5391H232.52L232.383 17.5C232.344 17.2917 232.305 17.0703 232.266 16.8359C232.148 16.276 232.051 15.6966 231.973 15.0977C231.908 14.4857 231.875 14.082 231.875 13.8867C231.875 13.6003 231.927 13.3919 232.031 13.2617C235.404 10.8789 238.704 9.6875 241.934 9.6875C245.085 9.6875 247.161 10.8333 248.164 13.125C248.542 13.9714 248.73 15.026 248.73 16.2891ZM244.648 27.4219C244.74 25.7812 244.805 24.0234 244.844 22.1484C244.701 22.0964 244.264 22.0703 243.535 22.0703C242.819 22.0703 241.908 22.1875 240.801 22.4219C239.707 22.6432 238.75 22.9688 237.93 23.3984C236.185 24.3229 235.312 25.5599 235.312 27.1094C235.312 28.1901 235.664 29.0951 236.367 29.8242C237.083 30.5534 238.008 30.918 239.141 30.918C240.547 30.918 241.992 30.2865 243.477 29.0234C243.919 28.6458 244.31 28.2487 244.648 27.832V27.4219Z" fill="white"/>
<path d="M267.129 29.1406L267.988 30.8008C266.699 31.9987 265.052 32.8451 263.047 33.3398C262.409 33.5091 261.738 33.5938 261.035 33.5938C260.332 33.5938 259.681 33.5156 259.082 33.3594C258.496 33.2031 258.008 32.9362 257.617 32.5586C256.862 31.8294 256.445 30.5339 256.367 28.6719V13.0469H252.969L253.125 11.0547C254.948 10.7292 256.211 10.0456 256.914 9.00391C257.474 8.17057 257.949 6.52344 258.34 4.0625H260.469V10.0586H267.676V13.0469H260.312V26.4062C260.312 28.0339 260.547 29.1081 261.016 29.6289C261.406 30.0586 262.22 30.2734 263.457 30.2734C264.694 30.2734 265.918 29.8958 267.129 29.1406Z" fill="white"/>
<path d="M277.246 5.83984C276.882 5.98307 276.484 6.05469 276.055 6.05469C275.625 6.05469 275.221 5.98307 274.844 5.83984C274.466 5.68359 274.141 5.47526 273.867 5.21484C273.268 4.66797 272.969 4.07552 272.969 3.4375C272.969 2.78646 273.047 2.27214 273.203 1.89453C273.359 1.51693 273.581 1.19141 273.867 0.917969C274.466 0.332031 275.202 0.0390625 276.074 0.0390625C276.921 0.0390625 277.63 0.332031 278.203 0.917969C278.763 1.50391 279.043 2.23958 279.043 3.125C279.043 4.4401 278.444 5.34505 277.246 5.83984ZM278.73 9.66797C278.145 11.3607 277.852 14.694 277.852 19.668L277.988 28.7695C277.988 29.5638 278.112 30.1758 278.359 30.6055C278.607 31.0221 279.102 31.2305 279.844 31.2305C280.443 31.2305 280.977 31.1523 281.445 30.9961L281.172 33.3008H270.684L271.035 31.2305C272.311 31.2305 273.177 30.8789 273.633 30.1758C274.01 29.5768 274.199 28.5807 274.199 27.1875V16.9727C274.199 15.3451 273.913 14.2904 273.34 13.8086C272.884 13.418 271.882 13.2227 270.332 13.2227L270.645 10.7617L278.73 9.66797Z" fill="white"/>
<path d="M304.961 12.2266C304.688 12.1875 304.479 12.168 304.336 12.168C304.193 12.168 304.036 12.2591 303.867 12.4414C303.698 12.6107 303.529 12.8516 303.359 13.1641C303.19 13.4766 303.021 13.8477 302.852 14.2773L302.266 15.6836C302.201 15.8529 302.038 16.2305 301.777 16.8164L294.512 33.0859L294.668 33.1445L293.164 33.6328L293.008 33.6133L284.785 15.1562C284.538 14.5833 284.329 14.1211 284.16 13.7695C283.991 13.4049 283.737 13.0469 283.398 12.6953C283.06 12.3307 282.682 12.1484 282.266 12.1484H282.109C282.018 12.1484 281.934 12.1549 281.855 12.168L282.129 10.0586H291.973L291.68 12.1289C291.471 12.168 291.204 12.1875 290.879 12.1875C290.553 12.1875 290.293 12.207 290.098 12.2461C289.915 12.2852 289.727 12.3633 289.531 12.4805C289.062 12.793 288.828 13.2617 288.828 13.8867C288.828 14.2643 288.984 14.8763 289.297 15.7227C289.987 17.4935 290.514 18.8086 290.879 19.668L293.516 25.6836C293.763 26.2174 293.932 26.6081 294.023 26.8555C294.102 27.0768 294.186 27.4935 294.277 28.1055L299.238 15.6641C299.525 14.8307 299.668 14.2057 299.668 13.7891C299.668 13.0729 299.355 12.5716 298.73 12.2852C298.509 12.194 298.223 12.1484 297.871 12.1484C297.533 12.1484 297.122 12.1875 296.641 12.2656L296.973 10.0586H305.332L304.961 12.2266Z" fill="white"/>
<path d="M318.672 30.2539C321.25 30.0846 323.522 29.4661 325.488 28.3984L326.348 30.0391C324.382 31.6667 322.142 32.7799 319.629 33.3789C318.874 33.5482 318.184 33.6328 317.559 33.6328C312.65 33.6328 309.557 31.4648 308.281 27.1289C307.865 25.7357 307.656 24.1146 307.656 22.2656C307.656 20.4036 307.956 18.6914 308.555 17.1289C309.167 15.5664 309.967 14.2383 310.957 13.1445C311.96 12.0378 313.105 11.1849 314.395 10.5859C315.684 9.98698 317.018 9.6875 318.398 9.6875C323.932 9.6875 326.699 12.8516 326.699 19.1797V19.375C326.699 21.0286 326.504 21.8555 326.113 21.8555H311.738C311.738 24.5768 312.337 26.6471 313.535 28.0664C314.746 29.4857 316.458 30.2148 318.672 30.2539ZM322.246 19.3555C322.259 19.082 322.266 18.8737 322.266 18.7305V18.0859C322.266 15.026 321.419 13.1445 319.727 12.4414C319.115 12.181 318.457 12.0508 317.754 12.0508C317.064 12.0508 316.478 12.1549 315.996 12.3633C315.514 12.5716 315.059 12.8581 314.629 13.2227C314.212 13.5872 313.828 14.0169 313.477 14.5117C313.125 14.9935 312.819 15.5273 312.559 16.1133C312.012 17.3242 311.738 18.5612 311.738 19.8242L322.246 19.3555Z" fill="white"/>
</svg>
