<svg width="75" height="48" viewBox="0 0 75 48" fill="none" xmlns="http://www.w3.org/2000/svg">
<path d="M51.294 12.608L51.438 12.44C51.6921 12.1855 52.0292 12.0307 52.3879 12.0039C52.7465 11.9771 53.1029 12.08 53.392 12.294L53.56 12.44L63.554 22.434C63.808 22.688 63.9625 23.0247 63.9893 23.3829C64.0161 23.7411 63.9134 24.0971 63.7 24.386L63.554 24.556L53.56 34.562C53.292 34.8279 52.9336 34.983 52.5563 34.9963C52.179 35.0096 51.8105 34.8801 51.5245 34.6337C51.2385 34.3873 51.0559 34.0421 51.0131 33.667C50.9704 33.2919 51.0707 32.9144 51.294 32.61L51.438 32.442L58.86 25.008H13.5C13.1378 25.0081 12.7879 24.8771 12.5147 24.6392C12.2416 24.4014 12.0637 24.0728 12.014 23.714L12 23.51C12 23.1475 12.1313 22.7973 12.3695 22.5241C12.6078 22.251 12.9369 22.0733 13.296 22.024L13.5 22.01L58.886 22.008L51.438 14.56C51.1843 14.3058 51.0302 13.9689 51.0038 13.6107C50.9773 13.2525 51.0803 12.8967 51.294 12.608Z" fill="#141414"/>
</svg>
